<?xml version="1.0" encoding="UTF-8" standalone="no"?>
<!-- Created with Inkscape (http://www.inkscape.org/) -->

<svg
   width="1024"
   height="1024"
   viewBox="0 0 270.93333 270.93333"
   version="1.1"
   id="svg1"
   xml:space="preserve"
   inkscape:version="1.3.2 (091e20e, 2023-11-25, custom)"
   sodipodi:docname="icon.svg"
   xmlns:inkscape="http://www.inkscape.org/namespaces/inkscape"
   xmlns:sodipodi="http://sodipodi.sourceforge.net/DTD/sodipodi-0.dtd"
   xmlns="http://www.w3.org/2000/svg"
   xmlns:svg="http://www.w3.org/2000/svg"><sodipodi:namedview
     id="namedview1"
     pagecolor="#505050"
     bordercolor="#eeeeee"
     borderopacity="1"
     inkscape:showpageshadow="0"
     inkscape:pageopacity="0"
     inkscape:pagecheckerboard="0"
     inkscape:deskcolor="#505050"
     inkscape:document-units="mm"
     inkscape:zoom="0.22627417"
     inkscape:cx="901.56115"
     inkscape:cy="1000.998"
     inkscape:window-width="1920"
     inkscape:window-height="1009"
     inkscape:window-x="-8"
     inkscape:window-y="-8"
     inkscape:window-maximized="1"
     inkscape:current-layer="layer1" /><defs
     id="defs1" /><g
     inkscape:label="Layer 1"
     inkscape:groupmode="layer"
     id="layer1"><g
       id="g15"
       inkscape:label="Script-Icon"
       style="display:inline;fill:#000000;stroke-width:1.03974"
       transform="matrix(0.96048979,0,0,0.96307069,-352.2465,8.8360004)"><path
         id="path14"
         style="fill:#000000;fill-opacity:1;stroke:none;stroke-width:22.0079;stroke-dasharray:none;stroke-opacity:1;paint-order:markers stroke fill"
         inkscape:label="Bottom-Outline"
         d="m 366.75977,190.38086 c 0.30538,11.77088 1.0361,23.68677 4.48281,35.01514 4.35229,14.92397 13.94685,28.40805 27.08343,36.83092 7.24518,4.52041 15.3122,7.8685 23.77096,9.21547 5.36027,0.85066 10.81015,0.61048 16.21745,0.6302 3.2079,-0.0488 6.41936,0.01 9.62479,-0.004 0.8841,0.0454 1.15366,-0.93514 1.67782,-1.47373 7.99262,-10.54224 14.86305,-22.18805 18.40015,-35.01777 3.67114,-13.41105 3.85825,-27.71756 0.79548,-41.26746 -0.30458,-1.49396 -0.61054,-2.98764 -0.91422,-4.48179 -33.72071,0 -67.44141,1e-5 -101.16211,0 0.008,0.18425 0.0156,0.36849 0.0234,0.55274 z" /><path
         id="path6"
         style="fill:#c54b69;fill-opacity:1;stroke:none;stroke-width:22.0079;stroke-dasharray:none;stroke-opacity:1;paint-order:markers stroke fill"
         d="m 377.23796,199.88444 c 1.39117,39.13443 23.30117,58.23309 48.78255,62.13678 h 17.36328 0.0749 c 10.16489,-13.56053 17.49007,-29.75207 17.37,-46.9713 0.36182,-5.23698 -0.1084,-10.27589 -1.13895,-15.16548 h -1.42317 z"
         sodipodi:nodetypes="cccccccc"
         inkscape:label="Bottom" /><path
         id="path13"
         style="fill:#000000;fill-opacity:1;stroke:none;stroke-width:22.0079;stroke-dasharray:none;stroke-opacity:1;paint-order:markers stroke fill"
         inkscape:label="Middle-Outline"
         d="m 434.06445,-9.0117188 c -8.65917,0.1752194 -17.53746,1.0753832 -25.48437,4.7597657 -8.66586,4.77113514 -15.41246,12.413234 -20.47461,20.8066411 -7.65761,13.043032 -10.6658,28.520173 -9.56494,43.531909 1.08988,17.424794 6.87113,34.324265 15.37864,49.485553 10.3178,18.64741 23.83956,35.21881 35.67925,52.87927 6.42066,9.43451 12.77604,19.00262 17.17892,29.58569 1.83531,4.56887 3.17699,9.33237 3.75977,14.16992 0.465,3.85383 0.36107,7.90294 0.1226,11.77841 -0.31227,4.59971 -1.03327,9.19364 -2.43462,13.62196 -2.6981,8.74467 -7.32474,16.81401 -12.68799,24.22901 -1.21217,1.71316 -9.21943,12.19408 -9.21943,12.19408 0,0 9.32575,3.62103 14.37192,4.01378 4.04701,0.22871 8.10174,-0.007 12.15221,0.0815 51.02188,-0.0591 102.04568,-0.0247 153.0664,-0.0867 3.15823,-0.49593 6.00266,-2.05563 8.88334,-3.35223 15.07261,-7.44519 26.71066,-21.53631 31.07679,-37.78155 4.79884,-16.00197 3.82531,-33.87105 -3.58104,-48.93361 -3.28034,-6.53088 -7.52205,-12.51819 -11.1928,-18.78832 -8.93677,-14.45299 -19.15625,-28.04332 -29.22764,-41.71035 -3.738,-5.54898 -6.97831,-11.41001 -10.33067,-17.19447 -3.99849,-7.130135 -7.87443,-14.396075 -10.50291,-22.158757 -2.20211,-7.381963 -2.66511,-15.097096 -4.1674,-22.632086 -1.25171,-4.253393 -5.69937,-7.10416 -10.06222,-6.902933 -4.12205,-0.114898 -8.24569,0.07156 -12.36849,-0.01049 -22.56302,6.36e-4 -45.12605,0.0013 -67.68907,0.0019 -1.59637,-15.282517 -7.1458,-30.322994 -16.82697,-42.350672 -6.1609,-7.7759354 -13.93833,-14.1752219 -22.43474,-19.2489375 -4.47331,0.00364 -8.94662,0.00786 -13.41993,0.011719 z"
         sodipodi:nodetypes="scccccccccccccccccccccccccccss" /><path
         id="path3-9"
         style="fill:#c54b69;fill-opacity:1;stroke:none;stroke-width:22.0079;stroke-dasharray:none;stroke-opacity:1;paint-order:markers stroke fill"
         d="m 435.62147,1.0335286 c -8.04703,0.00819 -19.91888,0.7443595 -26.01133,5.905066 -18.11499,13.8789994 -23.92159,38.3326204 -20.22357,60.0376794 4.39097,32.152334 26.20412,57.829566 44.2681,83.474486 12.90637,19.39873 28.8802,39.90436 27.17405,64.59916 0.12007,17.21924 -7.2051,33.41076 -17.37,46.9713 h 161.36379 c 14.57185,-5.11569 26.15234,-16.90176 30.69167,-31.70556 5.95889,-17.17268 3.93495,-37.09355 -7.00267,-51.89244 -10.32432,-18.101 -22.57837,-34.95393 -35.24798,-51.44751 -7.38597,-12.01859 -14.65839,-24.21469 -20.29023,-37.152769 -3.70004,-8.600171 -5.56866,-27.093953 -5.56866,-27.093953 l -0.0605,-0.09715 H 477.28353 C 477.07066,37.149085 466.72485,14.718997 444.62402,1.0335286 c -1.39218,2.488e-4 -8.6722,-3.359e-4 -9.00255,0 z"
         inkscape:label="Middle" /><path
         id="path15"
         style="fill:#000000;fill-opacity:1;stroke:none;stroke-width:22.0079;stroke-dasharray:none;stroke-opacity:1;paint-order:markers stroke fill"
         inkscape:label="Top-Outline"
         d="m 498.18555,-9.1601562 c 0,0.041478 -22.32706,0.057921 -37.51448,0.074545 -15.18742,0.016623 -26.15345,-5.567e-4 -26.15345,-5.567e-4 0,0 -16.65878,6.7336764 -11.03747,9.4934417 12.21487,5.9968549 20.38764,11.3023052 29.53938,20.8446802 7.33467,8.635374 11.80577,19.483993 13.36064,30.64249 1.44163,11.882882 0,20.86034 0,20.86034 0,0 13.1858,-0.110549 16.03545,0 37.3942,-0.07651 74.78855,-0.03825 112.18282,-0.0635 17.77578,-0.0012 35.55156,-0.0026 53.32734,-0.0038 C 649.67806,55.557517 646.60075,37.80966 638.32206,22.641381 632.41287,11.505178 623.3317,1.84493 611.95511,-3.7675092 604.7152,-7.4061889 596.57705,-8.9856932 588.5096,-9.034021 581.73359,-9.1471695 574.95596,-9.05254 568.17931,-9.11266 c -23.3312,-0.064857 -46.6625,-0.075746 -69.99376,-0.047513 v 8.7e-6 z"
         sodipodi:nodetypes="sscsccccccccccscs" /><path
         style="fill:#c54b69;fill-opacity:1;stroke:none;stroke-width:22.0079;stroke-dasharray:none;stroke-opacity:1;paint-order:markers stroke fill"
         d="m 638.30728,62.631835 c 0.2993,-27.580861 -16.91644,-61.0678899 -48.44751,-61.5983064 -48.406,-0.35694873 -96.82561,-0.13930973 -145.23574,0 22.10085,13.6854824 32.44664,36.1155304 32.65951,61.5983064 z"
         id="path3"
         sodipodi:nodetypes="ccccc"
         inkscape:label="Top" /><path
         style="display:inline;fill:#ececec;fill-opacity:1;stroke:none;stroke-width:8.25294;stroke-dasharray:none;stroke-opacity:1;paint-order:markers stroke fill"
         d="m 431.39486,98.598632 10.12857,10.438638 H 557.38199 L 547.35676,98.598632 Z"
         id="path16"
         sodipodi:nodetypes="ccccc"
         inkscape:label="Script-Line" /><path
         style="fill:#ececec;fill-opacity:1;stroke:none;stroke-width:8.25294;stroke-dasharray:none;stroke-opacity:1;paint-order:markers stroke fill"
         d="m 448.28197,126.81469 9.46407,9.59195 h 120.69411 l -9.59194,-9.59195 z"
         id="path17"
         sodipodi:nodetypes="ccccc"
         inkscape:label="Script-Line" /><path
         style="fill:#ececec;fill-opacity:1;stroke:none;stroke-width:8.25294;stroke-dasharray:none;stroke-opacity:1;paint-order:markers stroke fill"
         d="m 465.16382,154.64048 9.57368,9.35443 h 120.21908 l -9.35443,-9.35443 z"
         id="path18"
         sodipodi:nodetypes="ccccc"
         inkscape:label="Script-Line" /><path
         style="fill:#ececec;fill-opacity:1;stroke:none;stroke-width:8.25294;stroke-dasharray:none;stroke-opacity:1;paint-order:markers stroke fill"
         d="m 486.79594,182.6307 5.1888,9.93908 h 120.73064 l -5.18877,-9.93908 z"
         id="path19"
         sodipodi:nodetypes="ccccc"
         inkscape:label="Script-Line" /><path
         style="fill:#ececec;fill-opacity:1;stroke:none;stroke-width:8.25294;stroke-dasharray:none;stroke-opacity:1;paint-order:markers stroke fill"
         d="m 491.98474,209.8901 v 9.93908 h 121.46147 v -9.93908 z"
         id="path20"
         sodipodi:nodetypes="ccccc"
         inkscape:label="Script-Line" /></g></g></svg>
